<?xml version="1.0" encoding="UTF-8" standalone="no"?>
<!-- Created with Inkscape (http://www.inkscape.org/) -->

<svg
   xmlns:dc="http://purl.org/dc/elements/1.1/"
   xmlns:cc="http://creativecommons.org/ns#"
   xmlns:rdf="http://www.w3.org/1999/02/22-rdf-syntax-ns#"
   xmlns:svg="http://www.w3.org/2000/svg"
   xmlns="http://www.w3.org/2000/svg"
   xmlns:xlink="http://www.w3.org/1999/xlink"
   xmlns:sodipodi="http://sodipodi.sourceforge.net/DTD/sodipodi-0.dtd"
   xmlns:inkscape="http://www.inkscape.org/namespaces/inkscape"
   width="39.285713"
   height="39.285713"
   viewBox="0 0 39.285712 39.285713"
   id="svg2"
   version="1.1"
   inkscape:version="0.91 r13725"
   sodipodi:docname="icon.svg"
   inkscape:export-filename="/home/twak/code/chordtextureatlas/src/org/twak/tweed/resources/icon128.png"
   inkscape:export-xdpi="293.23636"
   inkscape:export-ydpi="293.23636">
  <defs
     id="defs4">
    <linearGradient
       inkscape:collect="always"
       id="linearGradient4845">
      <stop
         style="stop-color:#ffffff;stop-opacity:1;"
         offset="0"
         id="stop4847" />
      <stop
         style="stop-color:#ffffff;stop-opacity:0;"
         offset="1"
         id="stop4849" />
    </linearGradient>
    <linearGradient
       inkscape:collect="always"
       id="linearGradient4177">
      <stop
         style="stop-color:#0000af;stop-opacity:1"
         offset="0"
         id="stop4179" />
      <stop
         style="stop-color:#008aff;stop-opacity:1"
         offset="1"
         id="stop4181" />
    </linearGradient>
    <inkscape:perspective
       sodipodi:type="inkscape:persp3d"
       inkscape:vp_x="21.249999 : 56.25 : 1"
       inkscape:vp_y="36.561635 : 72.389303 : 1"
       inkscape:vp_z="99.999997 : 50 : 1"
       inkscape:persp3d-origin="49.999998 : 33.333333 : 1"
       id="perspective4159" />
    <radialGradient
       inkscape:collect="always"
       xlink:href="#linearGradient4177"
       id="radialGradient4183"
       cx="44.858978"
       cy="991.89209"
       fx="44.858978"
       fy="991.89209"
       r="18.196428"
       gradientUnits="userSpaceOnUse"
       gradientTransform="matrix(0.68168039,-0.11099869,0.15388526,0.94506111,-136.71453,55.687784)" />
    <filter
       inkscape:collect="always"
       style="color-interpolation-filters:sRGB"
       id="filter4831"
       x="-0.12116891"
       width="1.2423378"
       y="-0.073603198"
       height="1.1472064">
      <feGaussianBlur
         inkscape:collect="always"
         stdDeviation="0.5475679"
         id="feGaussianBlur4833" />
    </filter>
    <filter
       inkscape:collect="always"
       style="color-interpolation-filters:sRGB"
       id="filter4835"
       x="-0.17336556"
       width="1.3467311"
       y="-0.1027649"
       height="1.2055298">
      <feGaussianBlur
         inkscape:collect="always"
         stdDeviation="0.5475679"
         id="feGaussianBlur4837" />
    </filter>
    <filter
       inkscape:collect="always"
       style="color-interpolation-filters:sRGB"
       id="filter4839"
       x="-0.10747392"
       width="1.2149478"
       y="-0.24384579"
       height="1.4876916">
      <feGaussianBlur
         inkscape:collect="always"
         stdDeviation="0.5475679"
         id="feGaussianBlur4841" />
    </filter>
    <radialGradient
       inkscape:collect="always"
       xlink:href="#linearGradient4845"
       id="radialGradient4851"
       cx="36.54018"
       cy="976.84882"
       fx="36.54018"
       fy="976.84882"
       r="9.21875"
       gradientTransform="matrix(0.99933909,-0.03635082,0.01757341,0.48311962,-629.92476,318.42947)"
       gradientUnits="userSpaceOnUse" />
    <radialGradient
       inkscape:collect="always"
       xlink:href="#linearGradient4177"
       id="radialGradient4861"
       cx="44.627537"
       cy="991.94647"
       fx="44.627537"
       fy="991.94647"
       r="17.696428"
       gradientUnits="userSpaceOnUse"
       gradientTransform="matrix(0.70602033,-0.70819156,1.3168517,1.3128144,-1293.1268,-278.69027)" />
  </defs>
  <sodipodi:namedview
     id="base"
     pagecolor="#ffffff"
     bordercolor="#666666"
     borderopacity="1.0"
     inkscape:pageopacity="0.0"
     inkscape:pageshadow="2"
     inkscape:zoom="11.2"
     inkscape:cx="25.089795"
     inkscape:cy="24.902887"
     inkscape:document-units="px"
     inkscape:current-layer="layer1"
     showgrid="false"
     units="px"
     showguides="true"
     inkscape:guide-bbox="true"
     inkscape:window-width="1879"
     inkscape:window-height="1179"
     inkscape:window-x="41"
     inkscape:window-y="381"
     inkscape:window-maximized="1"
     fit-margin-top="0"
     fit-margin-left="0"
     fit-margin-right="0"
     fit-margin-bottom="0" />
  <metadata
     id="metadata7">
    <rdf:RDF>
      <cc:Work
         rdf:about="">
        <dc:format>image/svg+xml</dc:format>
        <dc:type
           rdf:resource="http://purl.org/dc/dcmitype/StillImage" />
        <dc:title></dc:title>
      </cc:Work>
    </rdf:RDF>
  </metadata>
  <g
     inkscape:label="Layer 1"
     inkscape:groupmode="layer"
     id="layer1"
     transform="translate(-18.578896,-965.17859)">
    <circle
       style="color:#000000;clip-rule:nonzero;display:inline;overflow:visible;visibility:visible;opacity:1;isolation:auto;mix-blend-mode:normal;color-interpolation:auto;color-interpolation-filters:linearRGB;solid-color:#000000;solid-opacity:1;fill:url(#radialGradient4183);fill-opacity:1;fill-rule:nonzero;stroke:url(#radialGradient4861);stroke-width:2;stroke-linecap:square;stroke-linejoin:miter;stroke-miterlimit:4;stroke-dasharray:none;stroke-dashoffset:0;stroke-opacity:1;color-rendering:auto;image-rendering:auto;shape-rendering:auto;text-rendering:optimizeLegibility;enable-background:accumulate"
       id="path4175"
       cx="38.73468"
       cy="984.89288"
       r="16.696428" />
    <ellipse
       style="color:#000000;clip-rule:nonzero;display:inline;overflow:visible;visibility:visible;opacity:1;isolation:auto;mix-blend-mode:normal;color-interpolation:sRGB;color-interpolation-filters:linearRGB;solid-color:#000000;solid-opacity:1;fill:url(#radialGradient4851);fill-opacity:1;fill-rule:evenodd;stroke:none;stroke-width:2;stroke-linecap:butt;stroke-linejoin:miter;stroke-miterlimit:4;stroke-dasharray:none;stroke-dashoffset:0;stroke-opacity:0.58238639;filter:url(#filter4335);color-rendering:auto;image-rendering:auto;shape-rendering:auto;text-rendering:auto;enable-background:accumulate"
       id="path4843"
       cx="-576.24213"
       cy="789.03601"
       rx="9.21875"
       ry="4.3160739"
       transform="matrix(0.79054057,-0.61240967,0.61240967,0.79054057,0,0)" />
    <path
       style="color:#000000;font-style:normal;font-variant:normal;font-weight:normal;font-stretch:normal;font-size:medium;line-height:normal;font-family:sans-serif;text-indent:0;text-align:start;text-decoration:none;text-decoration-line:none;text-decoration-style:solid;text-decoration-color:#000000;letter-spacing:normal;word-spacing:normal;text-transform:none;direction:ltr;block-progression:tb;writing-mode:lr-tb;baseline-shift:baseline;text-anchor:start;white-space:normal;clip-rule:nonzero;display:inline;overflow:visible;visibility:visible;opacity:1;isolation:auto;mix-blend-mode:normal;color-interpolation:sRGB;color-interpolation-filters:linearRGB;solid-color:#000000;solid-opacity:1;fill:#ffffff;fill-opacity:0.58238639;fill-rule:evenodd;stroke:none;stroke-width:2;stroke-linecap:butt;stroke-linejoin:miter;stroke-miterlimit:4;stroke-dasharray:none;stroke-dashoffset:0;stroke-opacity:1;color-rendering:auto;image-rendering:auto;shape-rendering:auto;text-rendering:auto;enable-background:accumulate"
       d="m 39.719029,972.71324 -12.285156,3.73633 -0.583427,0.16155 0.0073,1.09821 -0.04688,13.05466 12.625,8.3848 11.513672,-5.707 0.181481,-15.3442 -0.41195,-0.22029 z m -0.152344,2.13867 8.269531,3.88281 -8.759765,2.60352 -8.753906,-3.67578 z m -10.71289,4.36328 9.216796,3.8711 0.578125,13.1367 -9.833984,-6.5293 z m 20.265624,1.22461 -0.158203,11.75589 -8.308593,4.1172 -0.578125,-13.1856 z"
       id="path4185"
       inkscape:connector-curvature="0"
       sodipodi:nodetypes="ccccccccccccccccccccccccc" />
    <path
       id="path4207"
       style="color:#000000;clip-rule:nonzero;display:inline;overflow:visible;visibility:visible;opacity:1;isolation:auto;mix-blend-mode:normal;color-interpolation:sRGB;color-interpolation-filters:linearRGB;solid-color:#000000;solid-opacity:1;fill:#ffffff;fill-opacity:0.92045456;fill-rule:evenodd;stroke:none;stroke-width:1px;stroke-linecap:butt;stroke-linejoin:miter;stroke-miterlimit:4;stroke-dasharray:none;stroke-dashoffset:0;stroke-opacity:1;filter:url(#filter4831);color-rendering:auto;image-rendering:auto;shape-rendering:auto;text-rendering:auto;enable-background:accumulate"
       d="m 40.825235,986.89469 c -0.438047,0.1044 -0.216628,0.5861 -0.267883,0.9053 -0.113146,0.4457 0.477038,0.3442 0.739358,0.4383 0.380856,-0.2038 -0.03306,-0.7433 0.228244,-0.9927 0.0913,-0.2805 -0.308781,-1.0351 -0.5758,-0.5149 -0.03641,0.058 -0.08522,0.1073 -0.123919,0.164 z m 1.473214,-0.1785 c 0.07197,-0.3212 0.04486,-0.6641 0.203519,-0.9628 0.01862,-0.3415 0.448202,-0.7165 0.724227,-0.378 0.09554,0.3645 0.105732,0.7631 0.09881,1.1481 -0.171788,0.527 0.411448,0.668 0.670739,0.9541 0.04626,0.3076 0.100656,0.4229 0.04329,0.7774 -0.117707,0.4199 0.58651,0.7957 0.03521,1.1051 -0.405751,0.018 -0.93441,-0.3217 -1.216963,0.1443 -0.187459,0.3694 -0.793775,0.7292 -1.048754,0.2269 0.05647,-0.405 0.304719,-0.8022 0.50424,-1.1523 0.357282,-0.1749 0.456236,-0.6077 0.258474,-0.9381 -0.280191,-0.2141 -0.272933,-0.5734 -0.225754,-0.8785 l -0.047,-0.046 -4.6e-5,0 z m 4.598215,-5.4911 c 0.522517,1.10403 -0.252347,2.0809 -1.019676,2.8519 -0.767329,0.771 -1.003321,1.7442 -0.939726,2.9721 0.06359,1.228 1.217547,-0.1125 1.490479,-1.0489 0.272932,-0.9364 1.431611,0.116 1.030784,0.9487 -0.400827,0.8328 -0.214998,2.5805 -1.28895,1.8656 -1.073952,-0.7149 -1.201836,0.095 -1.342329,1.0709 -0.140493,0.9759 -1.964202,0.1817 -2.19487,1.3012 -0.230668,1.1196 1.175099,2.037 0.06005,2.4542 -1.115049,0.4173 -1.203051,2.2497 -0.19895,2.3779 1.004101,0.1282 2.670036,-0.2832 2.698108,-1.4591 0.02807,-1.1759 0.283562,-1.5573 1.268076,-2.1812 10.806625,0.40377 -23.064278,12.69011 2.752087,-0.0402 l 0.899202,-12.09526 z"
       inkscape:connector-curvature="0"
       sodipodi:nodetypes="ccccccccccccccccccccccssscssccsscccc" />
    <path
       style="color:#000000;clip-rule:nonzero;display:inline;overflow:visible;visibility:visible;opacity:1;isolation:auto;mix-blend-mode:normal;color-interpolation:sRGB;color-interpolation-filters:linearRGB;solid-color:#000000;solid-opacity:1;fill:#ffffff;fill-opacity:0.92045456;fill-rule:evenodd;stroke:none;stroke-width:1px;stroke-linecap:butt;stroke-linejoin:miter;stroke-miterlimit:4;stroke-dasharray:none;stroke-dashoffset:0;stroke-opacity:1;filter:url(#filter4839);color-rendering:auto;image-rendering:auto;shape-rendering:auto;text-rendering:auto;enable-background:accumulate"
       d="m 38.467423,975.46705 c -0.552727,0.20188 -1.417048,-0.12741 -1.772065,0.2257 -0.666051,0.13318 -1.769252,0.99021 -0.670058,1.41195 0.641294,0.33261 0.430836,1.38106 -0.366871,1.07623 -0.828775,0.26734 -1.649757,-0.63477 -2.389373,-0.1878 -0.452591,1.05728 0.87332,1.06189 1.580482,1.07679 0.854779,-0.081 1.76879,0.37477 2.260279,1.07492 0.396332,0.75639 1.295728,0.71289 2.022263,0.68604 0.728905,0.0627 1.571202,0.0793 1.749961,-0.81866 0.720985,-0.57844 1.732551,-0.21103 2.578817,-0.31569 0.907819,0.14892 2.207489,0.0324 1.896948,-1.22514 -0.02712,-0.82822 -1.077632,-0.4648 -1.620204,-0.53986 -0.445711,-0.0948 -1.487884,0.57454 -1.235551,-0.34652 0.3675,-0.30145 1.390321,-1.02724 0.478571,-1.30468 -0.619012,0.0804 -1.351699,-0.12915 -1.896968,0.11164 -0.826787,0.54319 -1.403894,-0.79653 -2.149975,-0.79958 -0.439902,0.0618 -0.27119,-0.12887 -0.466256,-0.12534 z"
       id="path4339"
       inkscape:connector-curvature="0" />
    <path
       style="color:#000000;clip-rule:nonzero;display:inline;overflow:visible;visibility:visible;opacity:1;isolation:auto;mix-blend-mode:normal;color-interpolation:sRGB;color-interpolation-filters:linearRGB;solid-color:#000000;solid-opacity:1;fill:#ffffff;fill-opacity:1;fill-rule:evenodd;stroke:none;stroke-width:1px;stroke-linecap:butt;stroke-linejoin:miter;stroke-miterlimit:4;stroke-dasharray:none;stroke-dashoffset:0;stroke-opacity:1;filter:url(#filter4835);color-rendering:auto;image-rendering:auto;shape-rendering:auto;text-rendering:auto;enable-background:accumulate"
       d="m 28.61166,989.82984 c 0.931174,0.097 2.969173,1.96468 2.839751,1.32108 0.627463,-0.6128 -0.126101,-3.53733 0.462948,-3.95693 0.852865,0.3286 1.308432,1.4166 1.514562,2.2648 0.662296,0.5944 1.319178,-0.2999 0.439532,-0.6956 -0.148812,-0.8588 -0.339854,-1.761 -0.447367,-2.645 -0.321961,-0.7781 0.573191,-1.6272 1.084963,-0.7661 1.332024,0.6556 1.576308,-1.7097 0.161522,-1.6588 -0.08944,-0.7176 0.05084,-1.72372 -0.240759,-2.54414 l -6.060915,-2.65165 c 0.553569,9.37832 -1.162085,10.49492 0.245763,11.33234 z"
       id="path4365"
       inkscape:connector-curvature="0"
       sodipodi:nodetypes="ccccccccccc" />
  </g>
</svg>
